# xmcd
#
# Track frame offsets:
#	150
#	36836
#	56785
#	74211
#	97418
#	118834
#	143640
#	165809
#	180997
#	198409
#	220564
#	237386
#	252417
#
# Disc length: 3652 seconds
#
# Revision: 1
# Processed by: cddbd v1.5.2PL0 Copyright (c) Steve Scherf et al.
# Submitted via: audiograbber 1.83.01
#
DISCID=c20e420d
DTITLE=Various Artist - Rmänisch
DYEAR=2009
DGENRE=
TTITLE0=Stefan De La Barbulesti - Cu Msinile De Lux 2007
TTITLE1=Costel Ciofu - Joaca nevasta
TTITLE2=Stefan De La Barbulesti - Alaturi de mine Exclusiv By L
TTITLE3=Florian Salam - Din milioane de oameni ( Mane
TTITLE4=Florian Salam - Orgoliu meu nu se pateaza
TTITLE5=Florian Salam - Nu ma las la nimenea
TTITLE6=Florian Salam and Paul Fantezie - Live 6
TTITLE7=Florian Salam and Paul Fantezie - Live 1
TTITLE8=Copilu De Aur - Fata Mea 2007
TTITLE9=Copilu De Aur and Cata De - Hai Aman Aman
TTITLE10=Sorinel Pustiu and Roberto Prin - Nu Mai Cred In Iubire
TTITLE11=Nek Claudia De Marco - Mai Bine Asa
TTITLE12=Mihaela Minune and Florian Minun - Tot ce simt pentru tine by
EXTD=
EXTT0=
EXTT1=
EXTT2=
EXTT3=
EXTT4=
EXTT5=
EXTT6=
EXTT7=
EXTT8=
EXTT9=
EXTT10=
EXTT11=
EXTT12=
PLAYORDER=
